<svg width="400px" height="134.5px" viewBox="0 0 107 36" version="1.1" xmlns="http://www.w3.org/2000/svg" xmlns:xlink="http://www.w3.org/1999/xlink">
    <!-- Generator: Sketch 52.5 (67469) - http://www.bohemiancoding.com/sketch -->
    <title>Group</title>
    <desc>Created with Sketch.</desc>
    <defs>
        <polygon id="path-1" points="0.181595936 0.0145803523 9.36317302 0.0145803523 9.36317302 11.4347589 0.181595936 11.4347589"></polygon>
        <polygon id="path-3" points="0.00583817395 0.160532024 23.2873115 0.160532024 23.2873115 19.505618 0.00583817395 19.505618"></polygon>
    </defs>
    <g id="Symbols" stroke="none" stroke-width="1" fill="none" fill-rule="evenodd">
        <g id="Header-1366" transform="translate(-14.000000, -13.000000)">
            <g id="Group" transform="translate(14.000000, 13.000000)">
                <g id="Group-33" transform="translate(43.000000, 3.000000)">
                    <path d="M4.05384563,5.90202102 C4.05384563,6.49487696 4.24926938,6.95509873 4.63964656,7.28245115 C5.02978857,7.61050908 5.44462311,7.77395013 5.88415018,7.77395013 C6.32320692,7.77395013 6.73427879,7.64507863 7.11830645,7.38686529 C7.50162862,7.12912229 7.81181385,7.00001562 8.04886216,7.00001562 C8.46745938,7.00001562 8.9763607,7.3696981 9.57556615,8.10859273 C9.89656907,8.51331509 10.0567178,8.8757074 10.0567178,9.19623998 C10.0567178,9.72630634 9.67316045,10.2210976 8.90628095,10.6813194 C8.11165175,11.2391355 7.13547364,11.5180435 5.97845213,11.5180435 C4.68150628,11.5180435 3.43347515,11.0510019 2.23459393,10.1166835 C1.66266785,9.6703366 1.19539107,9.07418832 0.832998768,8.32800352 C0.470371296,7.58228904 0.289292727,6.75943981 0.289292727,5.8601613 C0.289292727,4.9608828 0.470371296,4.14508857 0.832998768,3.41301378 C1.19539107,2.68117416 1.66266785,2.0920809 2.23459393,1.64549881 C3.39138027,0.72529045 4.62553654,0.265068684 5.93635725,0.265068684 C6.46595327,0.265068684 6.98214477,0.33844078 7.48422626,0.484714637 C7.98607258,0.631223661 8.3555199,0.77420518 8.59303854,0.913659195 L8.92744597,1.12272263 C9.17836913,1.29016152 9.37355772,1.42256052 9.5132469,1.52015482 C9.87563921,1.79906285 10.0567178,2.11606793 10.0567178,2.47187556 C10.0567178,2.82744802 9.91044392,3.22817254 9.61789621,3.67428429 C9.11534439,4.44139896 8.63466309,4.82472112 8.17444133,4.82472112 C7.90940815,4.82472112 7.53314099,4.67162742 7.04516952,4.36473452 C6.7940112,4.12768621 6.43491123,4.00916206 5.96786962,4.00916206 C5.50035768,4.00916206 5.06506361,4.17636578 4.66034125,4.51100838 C4.25585406,4.84565098 4.05384563,5.30940025 4.05384563,5.90202102" id="Fill-1" fill="#FFFFFF"></path>
                    <path d="M18.904052,0.516156461 C19.1690852,0.599640736 19.388496,0.74309259 19.5632251,0.944865853 C19.7372486,1.14734462 19.8244956,1.4714047 19.8244956,1.91751645 C19.8244956,2.3636282 19.6920966,2.85183484 19.4272986,3.38166603 C19.1622654,3.91149722 18.7789432,4.17629523 18.2770969,4.17629523 C18.0261737,4.17629523 17.7853628,4.12079582 17.5551343,4.00932668 C17.325141,3.89762236 17.0217756,3.84188779 16.6452733,3.84188779 C16.2690061,3.84188779 15.9164908,3.97452196 15.5891384,4.23908481 C15.2613156,4.50435315 15.0976394,4.82465057 15.0976394,5.20115289 L15.0976394,9.59383678 C15.0976394,9.91460453 15.0870569,10.1549452 15.0663622,10.3153291 C15.0451972,10.4759481 14.9788801,10.660319 14.867411,10.8693824 C14.6581124,11.2320099 14.1146415,11.4133236 13.2360577,11.4133236 C12.5667725,11.4133236 12.0856208,11.2950347 11.792838,11.0577512 C11.5698997,10.8627978 11.4438502,10.5629599 11.4161005,10.1584727 L11.4161005,9.55197706 L11.4161005,2.21029933 C11.4161005,1.88976675 11.4269181,1.64919094 11.4476128,1.48880706 C11.4687779,1.32865835 11.5280399,1.15087212 11.6253991,0.955213199 C11.8205877,0.578946043 12.3642937,0.390577297 13.2572227,0.390577297 C14.0934765,0.390577297 14.616723,0.550961173 14.8255512,0.871728924 C14.9788801,1.09490238 15.0555445,1.32489568 15.0555445,1.56170882 C15.1256243,1.4643497 15.2260406,1.34582554 15.3591451,1.20637153 C15.4913089,1.06715268 15.7737445,0.878783933 16.2059814,0.641500458 C16.6379831,0.404687316 17.0180129,0.285927995 17.3458357,0.285927995 C17.6736584,0.285927995 17.9488038,0.303800684 18.1724476,0.338370229 C18.3951507,0.373410108 18.639254,0.432437019 18.904052,0.516156461" id="Fill-3" fill="#FFFFFF"></path>
                    <path d="M23.69398,5.91258002 C23.69398,6.37256662 23.8750586,6.78763633 24.2379212,7.15684847 C24.6000783,7.52653096 25.0396054,7.71090186 25.5553266,7.71090186 C26.0710477,7.71090186 26.4999923,7.52300345 26.8419251,7.14626596 C27.1836227,6.7699988 27.3538836,6.35516426 27.3538836,5.90199751 C27.3538836,5.44883075 27.1902074,5.0269412 26.8626198,4.63632886 C26.534797,4.24642202 26.0957403,4.0507631 25.5449792,4.0507631 C24.993983,4.0507631 24.5478713,4.24642202 24.2064088,4.63632886 C23.8647112,5.0269412 23.69398,5.45235825 23.69398,5.91258002 M27.5006278,1.56175586 C27.5843472,0.781236673 28.1348731,0.390624331 29.1529109,0.390624331 C29.6968521,0.390624331 30.100869,0.432248885 30.3659022,0.516203494 C30.6307002,0.59968777 30.8155414,0.746196794 30.9204259,0.955260233 C31.02484,1.16455884 31.0876296,1.34963525 31.1087946,1.50954879 C31.1294893,1.66993266 31.1398367,1.91050848 31.1398367,2.23127623 L31.1398367,9.55202409 C31.1398367,9.87255668 31.1294893,10.1131325 31.1087946,10.2732812 C31.0876296,10.4339002 31.0281324,10.6185063 30.9305381,10.8275698 C30.7353495,11.1904324 30.2581957,11.371511 29.498136,11.371511 C28.7380764,11.371511 28.2289399,11.277209 27.9711969,11.0893106 C27.7132187,10.9009418 27.5631822,10.6257965 27.5215576,10.2629339 C27.0053661,11.0022988 26.1441847,11.371511 24.9384836,11.371511 C23.7323122,11.371511 22.6129174,10.8207499 21.5814751,9.71922781 C20.5493272,8.61770571 20.0336061,7.33816221 20.0336061,5.88106765 C20.0336061,4.42420825 20.5530899,3.14819225 21.5918224,2.05349 C22.6307901,0.959022904 23.7704093,0.411319024 25.0118557,0.411319024 C25.4857172,0.411319024 25.917954,0.495273634 26.3085664,0.662477351 C26.6984732,0.829916236 26.9707966,0.986772607 27.1243606,1.13328163 C27.2772192,1.27955549 27.4027983,1.42253701 27.5006278,1.56175586" id="Fill-5" fill="#FFFFFF"></path>
                    <path d="M38.3138168,7.73213744 L41.8904713,7.73213744 C42.4480522,7.73213744 42.8492471,7.80198203 43.0931152,7.94120088 C43.3367482,8.08065489 43.5013651,8.28313366 43.5846142,8.54793167 C43.668804,8.81296485 43.7101934,9.1614823 43.7101934,9.5937192 C43.7101934,10.0259561 43.668804,10.3747087 43.5846142,10.6392716 C43.5013651,10.9043047 43.3548561,11.089146 43.1455575,11.1937953 C42.9362589,11.2982094 42.7514176,11.360999 42.5910337,11.3819289 C42.430885,11.4026236 42.1903092,11.4132061 41.8697766,11.4132061 L34.3190355,11.4132061 C33.8305937,11.4132061 33.4054118,11.2321275 33.0432546,10.8695 C32.680392,10.5073429 32.4995486,10.0746357 32.4995486,9.57278934 C32.4995486,9.07047268 32.680392,8.64199846 33.0432546,8.28619083 C33.4054118,7.93085353 33.963463,7.4184247 34.7162325,6.74890433 C35.4694723,6.07985429 36.1523972,5.47688617 36.766183,4.93999997 C37.3797336,4.40334894 37.7141411,4.10680339 37.7701108,4.05083365 L34.8208818,4.05083365 C34.0264878,4.05083365 33.5244063,3.91866981 33.3151077,3.65340146 C33.077589,3.3469789 32.9595352,2.94225654 32.9595352,2.44041022 C32.9595352,1.93832873 32.9943399,1.56535391 33.0644197,1.32148576 C33.1340291,1.07761761 33.2172782,0.896068706 33.3151077,0.777544551 C33.412702,0.659255564 33.5519208,0.565188775 33.7329994,0.495344184 C33.9700477,0.42573476 34.3329103,0.390459714 34.8208818,0.390459714 L41.6188535,0.390459714 C42.1068249,0.390459714 42.5320068,0.565188775 42.8946343,0.913706229 C43.2570266,1.26222368 43.4383403,1.69798808 43.4383403,2.22076426 C43.4383403,2.74354044 43.2290417,3.20728972 42.8106797,3.61177691 C42.392788,4.0162641 40.8933634,5.38940406 38.3138168,7.73213744" id="Fill-7" fill="#FFFFFF"></path>
                    <path d="M49.9642238,11.3714874 C48.5555737,11.3714874 47.3879697,10.8378936 46.4609414,9.77141136 C45.5334429,8.70469397 45.0696936,7.40469095 45.0696936,5.87046162 L45.0696936,2.21032285 C45.0696936,1.87568025 45.0802761,1.6318121 45.1009708,1.47848323 C45.1221359,1.3249192 45.1813979,1.14384063 45.2787571,0.934542022 C45.4741808,0.558274866 46.0178869,0.369906121 46.9108159,0.369906121 C47.8860533,0.369906121 48.4582145,0.634939299 48.6256534,1.16453532 C48.7089025,1.38770878 48.7512326,1.74328124 48.7512326,2.23125271 L48.7512326,5.89139148 C48.7512326,6.46331755 48.9146736,6.9094293 49.2429667,7.23019705 C49.570084,7.55119997 50.0089056,7.71111351 50.5603721,7.71111351 C51.1111332,7.71111351 51.5567746,7.5439098 51.8991777,7.20926719 C52.2401698,6.87462459 52.4111362,6.43533268 52.4111362,5.89139148 L52.4111362,2.18939299 C52.4111362,1.86886041 52.4219539,1.62828459 52.4426486,1.46790072 C52.4638136,1.30775201 52.5296603,1.1226756 52.6415998,0.913612162 C52.8224432,0.55098469 53.3595646,0.369906121 54.2517881,0.369906121 C55.1303719,0.369906121 55.6672581,0.558274866 55.8624467,0.934542022 C55.9598058,1.14384063 56.0190679,1.32868187 56.0402329,1.48883058 C56.0613979,1.64921445 56.0717453,1.88979027 56.0717453,2.21032285 L56.0717453,9.61455499 C56.0717453,9.8231481 56.0668068,9.99787716 56.0571649,10.1387422 C56.0526968,10.2050593 56.0717453,13.4214379 56.0402329,13.88213 C56.0291801,14.0434546 55.9532211,14.2203002 55.8412817,14.4152536 C55.6322182,14.7781162 55.095332,14.95943 54.2313286,14.95943 C53.3804945,14.95943 52.8574831,14.7917559 52.6622945,14.4571133 C52.550355,14.2675687 52.4835676,14.0465118 52.4612268,13.7941776 C52.4558179,13.7311529 52.4529959,10.0997045 52.4529959,10.032917 C52.3974965,10.1305113 52.2716822,10.2699653 52.0767288,10.4512791 C51.8810698,10.6325928 51.6931714,10.7856865 51.5120929,10.9115008 C51.0375259,11.2183937 50.5218047,11.3714874 49.9642238,11.3714874" id="Fill-9" fill="#FFFFFF"></path>
                    <path d="M3.86575908,21.1552566 C3.86575908,21.6084234 4.04354532,22.0162029 4.39935294,22.3788304 C4.75469024,22.7414578 5.1864568,22.9227716 5.69606363,22.9227716 C6.2047298,22.9227716 6.62661935,22.7376952 6.96102678,22.3682478 C7.29613972,21.9990357 7.4635786,21.5945485 7.4635786,21.1552566 C7.4635786,20.7159647 7.30272439,20.3048928 6.98219181,19.9211003 C6.66142406,19.5377782 6.22942233,19.3458819 5.68524595,19.3458819 C5.14177508,19.3458819 4.70224801,19.5340155 4.36784057,19.9105178 C4.03343314,20.2874905 3.86575908,20.702325 3.86575908,21.1552566 Z M7.58868743,25.4324735 C7.05862107,26.1297436 6.21507714,26.478261 5.05805564,26.478261 C3.90032863,26.478261 2.81620888,25.9449023 1.80522607,24.8781849 C0.794243251,23.8114676 0.28933976,22.5671991 0.28933976,21.1446741 C0.28933976,19.7223842 0.798005922,18.4748234 1.81604375,17.4008159 C2.83361124,16.3272786 3.94924336,15.7903924 5.16246977,15.7903924 C5.63633122,15.7903924 6.06856812,15.8776394 6.45918046,16.0518981 C6.84955764,16.2261569 7.11835349,16.3865407 7.26462734,16.5328146 C7.4109012,16.6790884 7.52566268,16.8152501 7.60985246,16.9405941 C7.65171218,16.5504521 7.79422337,16.2539066 8.03856185,16.0518981 C8.28219483,15.8496545 8.67633468,15.7485327 9.22027589,15.7485327 C9.7642171,15.7485327 10.1614141,15.7903924 10.4123373,15.8738767 C10.6632604,15.9575962 10.8410467,16.1008129 10.945696,16.3025861 C11.0503453,16.5050649 11.1131349,16.6826159 11.1342999,16.8359448 C11.1549946,16.989744 11.1653419,17.2265572 11.1653419,17.5470897 L11.1653419,26.206408 C11.1653419,27.8097764 10.607761,29.10343 9.49212891,30.0864279 C8.37673196,31.0694258 7.12141066,31.5609248 5.72710567,31.5609248 C4.66767846,31.5609248 3.65646048,31.3027115 2.69462756,30.7869903 C1.73232431,30.271034 1.25140785,29.8037572 1.25140785,29.3856303 C1.25140785,28.8419243 1.46047128,28.3610078 1.8790685,27.9424106 C2.14339617,27.6493926 2.34940244,27.4473841 2.49591147,27.335915 C2.64218532,27.2242107 2.81268138,27.1684761 3.0083403,27.1684761 C3.20329372,27.1684761 3.40577248,27.2521955 3.61507109,27.4193993 C4.28412113,27.9351204 5.00867057,28.1933338 5.78989526,28.1933338 C6.31972645,28.1933338 6.75172817,27.9842703 7.08684111,27.5661434 C7.42124855,27.1475462 7.58868743,26.6456999 7.58868743,26.059899 L7.58868743,25.4324735 Z" id="Fill-11" fill="#FFFFFF"></path>
                    <path d="M16.1849339,21.312113 C16.1849339,21.7723347 16.3660125,22.1874044 16.7291103,22.5566166 C17.0912674,22.9260639 17.5305593,23.11067 18.0467508,23.11067 C18.562472,23.11067 18.9914166,22.9227716 19.332879,22.5460341 C19.6745766,22.1695318 19.8453079,21.7549324 19.8453079,21.3015305 C19.8453079,20.8485989 19.6811613,20.4264742 19.3540441,20.036097 C19.0262213,19.645955 18.5866942,19.4505312 18.0364035,19.4505312 C17.484937,19.4505312 17.0388252,19.645955 16.6978331,20.036097 C16.3556651,20.4264742 16.1849339,20.8521264 16.1849339,21.312113 M19.9918169,16.961524 C20.0753012,16.1810048 20.6262974,15.7903924 21.6443352,15.7903924 C22.1878061,15.7903924 22.5922933,15.832017 22.8573264,15.9157364 C23.1221245,15.9994559 23.3069657,16.1457297 23.411615,16.3550284 C23.5162643,16.564327 23.5785836,16.7491682 23.5997486,16.9090817 C23.6209136,17.0697008 23.631261,17.3102766 23.631261,17.6308092 L23.631261,24.951557 C23.631261,25.2723248 23.6209136,25.5129006 23.5997486,25.6730493 C23.5785836,25.8334332 23.5193215,26.0182744 23.4219623,26.2273379 C23.2267738,26.5899653 22.7491496,26.7712791 21.98909,26.7712791 C21.2290303,26.7712791 20.7203642,26.676742 20.4621508,26.4888435 C20.2041727,26.3004748 20.0546065,26.0253294 20.0125116,25.662702 C19.4967904,26.4018318 18.6356089,26.7712791 17.4294375,26.7712791 C16.2232661,26.7712791 15.1043417,26.2202829 14.072429,25.1187608 C13.0402812,24.0172387 12.5250303,22.7376952 12.5250303,21.2806006 C12.5250303,19.8237412 13.0440438,18.5479604 14.0830115,17.4530229 C15.121744,16.358791 16.2618335,15.8110871 17.5028096,15.8110871 C17.9766711,15.8110871 18.408908,15.8948066 18.7995203,16.0620103 C19.1896623,16.2296844 19.4617505,16.3865407 19.6153146,16.5328146 C19.7686434,16.6790884 19.8939874,16.8223051 19.9918169,16.961524" id="Fill-13" fill="#FFFFFF"></path>
                    <path d="M28.9018702,17.2543304 C29.5568102,16.2645126 30.3453251,15.7694861 31.2655334,15.7694861 C32.6878233,15.7694861 33.7472505,16.3759817 34.4447557,17.5892081 C34.5978494,17.3799095 34.7824555,17.1604987 34.9988091,16.9302703 C35.2151627,16.700277 35.5599175,16.4488835 36.0342493,16.1772656 C36.5081108,15.9054126 36.9963174,15.7694861 37.4983989,15.7694861 C38.6137958,15.7694861 39.5481142,16.1981955 40.3008837,17.0556143 C41.0541235,17.9132682 41.4301555,19.3322657 41.4301555,21.3121365 L41.4301555,24.9722753 C41.4301555,25.2935133 41.4198081,25.533854 41.3988783,25.6940027 C41.3784188,25.8543866 41.3118665,26.0389926 41.2003974,26.2482912 C41.0190836,26.6247936 40.4821974,26.8129272 39.5897388,26.8129272 C38.711155,26.8129272 38.1745039,26.6177386 37.9795505,26.2273614 C37.881721,26.018298 37.822459,25.8332215 37.8017643,25.6730728 C37.7805992,25.5129241 37.7702519,25.2723483 37.7702519,24.9513454 L37.7702519,21.2909715 C37.7702519,20.0782154 37.338015,19.4714846 36.473306,19.4714846 C35.9848642,19.4714846 35.6542195,19.6318685 35.4799607,19.9526362 C35.3052317,20.273404 35.2186902,20.7263356 35.2186902,21.3121365 L35.2186902,24.9722753 C35.2186902,25.3069179 35.2078726,25.5510212 35.187413,25.70435 C35.166248,25.8581492 35.0996958,26.0389926 34.9884618,26.2482912 C34.793038,26.6247936 34.2488616,26.8129272 33.3568733,26.8129272 C32.4785247,26.8129272 31.9416385,26.6177386 31.7464499,26.2273614 C31.6488556,26.018298 31.5895935,25.8332215 31.5686637,25.6730728 C31.547969,25.5129241 31.5371513,25.2723483 31.5371513,24.9513454 L31.5371513,21.2909715 C31.5371513,20.0782154 31.1046792,19.4714846 30.2404406,19.4714846 C29.4039517,19.4714846 28.9853545,20.0782154 28.9853545,21.2909715 L28.9853545,24.9932051 C28.9853545,25.314208 28.9752423,25.5545487 28.9540773,25.7149326 C28.9333826,25.8753164 28.8670655,26.0599225 28.7555963,26.2689859 C28.5462977,26.6318486 28.0023565,26.8129272 27.1237727,26.8129272 C26.2456592,26.8129272 25.7083027,26.6247936 25.5135844,26.2482912 C25.415755,26.0389926 25.3564929,25.8581492 25.3357982,25.70435 C25.3146332,25.5510212 25.3042858,25.3069179 25.3042858,24.9722753 L25.3042858,17.6099028 C25.3042858,17.2893703 25.3146332,17.0487944 25.3357982,16.8881754 C25.3564929,16.7282619 25.4223397,16.5504756 25.5342791,16.3550519 C25.7433426,15.9785495 26.2386042,15.7901808 27.0191234,15.7901808 C27.8001129,15.7901808 28.3090142,15.91576 28.5462977,16.1666831 C28.7828757,16.4178414 28.9018702,16.7804689 28.9018702,17.2543304" id="Fill-15" fill="#FFFFFF"></path>
                    <path d="M49.3154452,20.600874 C49.8452764,20.600874 50.1105447,20.3779357 50.1105447,19.9313536 C50.1105447,19.6110562 49.9880227,19.353078 49.7441546,19.1576543 C49.5005216,18.9624657 49.151769,18.8648714 48.6988374,18.8648714 C48.2452003,18.8648714 47.7955611,19.0497126 47.3499196,19.4191599 C46.9031024,19.7888424 46.6803993,20.1827471 46.6803993,20.600874 L49.3154452,20.600874 Z M53.7288238,19.9837958 C53.7288238,20.8414498 53.5159977,21.4764006 53.0910509,21.8872373 C52.6653987,22.2987795 52.1948296,22.5043155 51.6791084,22.5043155 L46.722259,22.5043155 C46.722259,22.8949278 46.9520171,23.2225154 47.4120037,23.4873134 C47.8722255,23.7523466 48.3322121,23.8847456 48.7924338,23.8847456 C49.6014082,23.8847456 50.2358887,23.8010261 50.6958753,23.6335873 L50.926339,23.550103 C51.2605112,23.3967741 51.5394193,23.3201097 51.763063,23.3201097 C52.2089396,23.3201097 52.5922618,23.6335873 52.9132647,24.2612479 C53.0938729,24.6377502 53.1851177,24.9587532 53.1851177,25.223316 C53.1851177,26.4647624 51.7002735,27.0846626 48.7301146,27.0846626 C47.6979668,27.0846626 46.7815211,26.9068764 45.9796017,26.5515391 C45.1774471,26.1959666 44.5537843,25.7251623 44.1074374,25.1395966 C43.2290888,24.0100896 42.790032,22.7484188 42.790032,21.3538786 C42.790032,19.5969462 43.3579603,18.192529 44.4945223,17.1392161 C45.6308491,16.0868439 47.0493762,15.5600699 48.7508093,15.5600699 C50.6888203,15.5600699 52.1113453,16.2437003 53.0176789,17.6097853 C53.4917755,18.3350402 53.7288238,19.1263771 53.7288238,19.9837958 Z" id="Fill-17" fill="#FFFFFF"></path>
                    <g id="Group-21" transform="translate(54.593321, 15.566513)">
                        <mask id="mask-2" fill="white">
                            <use xlink:href="#path-1"></use>
                        </mask>
                        <g id="Clip-20"></g>
                        <path d="M0.578792954,10.2633922 C0.313524608,10.0961885 0.181595936,9.83139047 0.181595936,9.46852783 C0.181595936,9.10613552 0.445923614,8.55537447 0.975989971,7.81624468 C1.12908367,7.57919637 1.37694966,7.46067221 1.71864727,7.46067221 C2.06034488,7.46067221 2.52385899,7.6316386 3.10942475,7.97333622 C3.69522568,8.31503383 4.2248217,8.48552988 4.69915349,8.48552988 C5.54975243,8.48552988 5.97516948,8.31832616 5.97516948,7.98368356 C5.97516948,7.71888555 5.50742237,7.5234618 4.57357432,7.39788263 C3.69522568,7.27230347 2.82346171,6.94495104 1.95922308,6.41488469 C1.55450072,6.16372636 1.21985812,5.77029201 0.95506011,5.23317065 C0.690262099,4.69651962 0.557627926,4.05851162 0.557627926,3.31938182 C0.557627926,1.11633762 2.07045706,0.0145803523 5.09658567,0.0145803523 C6.08663863,0.0145803523 7.10467645,0.251863828 8.15022881,0.725490111 C8.63820028,0.949133903 8.88253877,1.22780677 8.88253877,1.56244937 C8.88253877,1.89709197 8.72873957,2.30863417 8.422317,2.79660564 C8.11518893,3.28457711 7.80147619,3.52844526 7.48094361,3.52844526 C7.31350472,3.52844526 7.00308432,3.42379596 6.5503879,3.21449735 C6.09698597,3.00566908 5.60525183,2.90101978 5.07565581,2.90101978 C4.2525714,2.90101978 3.84149954,3.05458381 3.84149954,3.36124154 C3.84149954,3.77936842 4.31559615,4.05145661 5.26378939,4.17680061 C6.18399775,4.27463007 7.07645641,4.53966324 7.94116537,4.97166497 C8.3454174,5.16708873 8.68358751,5.50502367 8.95544053,5.98617529 C9.22752872,6.46685659 9.36322006,7.07053021 9.36322006,7.79554998 C9.36322006,8.52056976 9.22752872,9.13741273 8.95544053,9.64631406 C8.68358751,10.1556857 8.30379285,10.5352452 7.81558621,10.7864035 C6.92289238,11.2186404 5.80420309,11.4347589 4.45881284,11.4347589 C3.11271709,11.4347589 1.8195339,11.0443817 0.578792954,10.2633922" id="Fill-19" fill="#FFFFFF" mask="url(#mask-2)"></path>
                    </g>
                </g>
                <g id="Group-16">
                    <g id="Group-3" transform="translate(7.314607, 15.788230)">
                        <mask id="mask-4" fill="white">
                            <use xlink:href="#path-3"></use>
                        </mask>
                        <g id="Clip-2"></g>
                        <path d="M0.309251124,18.4428753 C1.08581854,17.9637685 1.81066124,17.6368753 2.50833539,17.2713191 L4.5045264,16.2904652 C5.13602079,15.959218 5.74626798,15.6840494 6.31994213,15.3756169 C6.46431854,15.3035157 6.60695337,15.227409 6.74941404,15.1622742 C6.89065562,15.0922629 7.02684663,15.0105831 7.16408258,14.9369146 L7.57195899,14.7253135 L7.77328483,14.6223865 L7.96851517,14.5114483 C10.0686781,13.3801225 11.701577,12.3095775 13.1968916,11.1698921 C14.6868073,10.0201056 16.0835489,8.75851011 17.6189197,7.07771798 C18.3825994,6.23688652 19.156032,5.28807753 19.9689983,4.20133596 L20.2833522,3.78771236 C20.3840152,3.64664494 20.4737062,3.50226854 20.5855152,3.35771798 C20.6901837,3.21229663 20.8058242,3.06530787 20.9030039,2.91413933 C20.9986163,2.76279663 21.1118185,2.61023483 21.2204927,2.45418989 L21.3848972,2.21820674 C21.4357511,2.13879101 21.4867792,2.05867865 21.5439028,1.97769551 L21.877414,1.48308876 C22.1123522,1.14679101 22.3215152,0.798824719 22.5966837,0.431701124 L22.7217287,0.264510112 C22.8079365,0.149740449 22.9704253,0.126403371 23.0850208,0.212437079 C23.1444084,0.256847191 23.179414,0.322852809 23.1872511,0.391296629 C23.3469534,1.82234719 23.3075938,3.27586404 23.1252511,4.71231348 C22.9214871,6.14615056 22.5608073,7.56448764 22.016914,8.91734157 C20.9366163,11.6253135 19.1210264,14.0534146 16.8078691,15.8613416 C15.6415376,16.7525045 14.3538185,17.4768247 13.0056669,18.0383079 C11.6566444,18.5973528 10.2459702,19.0026169 8.81161067,19.2190944 C7.37864438,19.4441056 5.93244213,19.5266562 4.49407697,19.5012292 L3.41778483,19.4406225 C3.23822865,19.433482 3.05971742,19.4158921 2.88155449,19.3955157 L2.34671742,19.3387404 C1.63215,19.2810944 0.928728652,19.1402011 0.223739888,19.0289146 C0.0830207865,19.0066225 -0.0131140449,18.8746112 0.00900393258,18.733718 C0.0213691011,18.6569146 0.0661275281,18.593173 0.127605056,18.5550326 L0.309251124,18.4428753 Z" id="Fill-1" fill="#FFFFFF" mask="url(#mask-4)"></path>
                    </g>
                    <path d="M22.5306258,3.59539045 C22.5306258,3.59539045 26.7417494,-1.2501882 28.0921652,0.309390449 C30.4035809,2.97939607 29.6947607,11.0219803 29.6947607,11.0219803" id="Fill-4" fill="#FFFFFF"></path>
                    <path d="M8.34241348,3.59539045 C8.34241348,3.59539045 4.13111573,-1.2501882 2.78087416,0.309390449 C0.46928427,2.97939607 1.17810449,11.0219803 1.17810449,11.0219803" id="Fill-6" fill="#FFFFFF"></path>
                    <path d="M12.0590697,14.1729039 C12.0590697,13.3419994 12.5968674,12.6380556 13.3436539,12.3836118 C12.9599854,11.9964601 12.4282831,11.7554264 11.842418,11.7554264 C10.6793955,11.7554264 9.7278,12.7040612 9.7278,13.8639489 L9.7278,18.5357185 C9.7278,19.695432 10.6793955,20.6438927 11.842418,20.6438927 C13.0054404,20.6438927 13.9568618,19.695432 13.9568618,18.5357185 L13.9568618,16.0652972 C12.908609,16.0652972 12.0590697,15.2178478 12.0590697,14.1729039" id="Fill-8" fill="#FFFFFF"></path>
                    <path d="M19.2471511,14.1729039 C19.2471511,13.3419994 19.7849489,12.6380556 20.5317354,12.3836118 C20.1480669,11.9964601 19.6163646,11.7554264 19.0304994,11.7554264 C17.867477,11.7554264 16.9158815,12.7040612 16.9158815,13.8639489 L16.9158815,18.5357185 C16.9158815,19.695432 17.867477,20.6438927 19.0304994,20.6438927 C20.1935219,20.6438927 21.1449433,19.695432 21.1449433,18.5357185 L21.1449433,16.0652972 C20.0966904,16.0652972 19.2471511,15.2178478 19.2471511,14.1729039" id="Fill-10" fill="#FFFFFF"></path>
                    <path d="M15.4364326,6.2451764 C12.1483427,6.2451764 9.80627528,6.86117079 8.27647753,8.12816517 C6.4647191,9.62905281 5.58400562,12.2356652 5.58400562,16.0974292 C5.58400562,24.2742888 9.52257303,25.9500303 15.4364326,25.9500303 C21.3502921,25.9500303 25.2888596,24.2742888 25.2888596,16.0974292 C25.2888596,12.2356652 24.4081461,9.62905281 22.5963876,8.12816517 C21.0665899,6.86117079 18.7245225,6.2451764 15.4364326,6.2451764 M15.4364326,31.534036 C10.7850393,31.534036 7.27942697,30.5075528 4.71914045,28.3962438 C1.58779213,25.8140135 0,21.6762101 0,16.0974292 C0,10.5472101 1.58622472,6.41915955 4.71461236,3.82769888 C7.28708989,1.69705843 10.7942697,0.661170787 15.4364326,0.661170787 C20.0785955,0.661170787 23.5857753,1.69705843 26.1582528,3.82769888 C29.2866404,6.41915955 30.8728652,10.5472101 30.8728652,16.0974292 C30.8728652,21.6762101 29.2852472,25.8140135 26.1537247,28.3962438 C23.5934382,30.5075528 20.0878258,31.534036 15.4364326,31.534036" id="Fill-12" fill="#FFFFFF"></path>
                    <path d="M21.5989539,30.7515298 C19.8155831,31.2767882 17.7692348,31.5359343 15.4332629,31.5359343 C14.6199483,31.5359343 13.8435551,31.5024961 13.0990326,31.4394511 C12.6847124,31.6461758 12.2561112,31.8499399 11.8160157,32.0805242 L10.5267292,32.7142826 C11.1559596,32.7579961 11.8062629,32.7822039 12.4833865,32.7822039 C16.2312517,32.7822039 19.2340719,32.1148331 21.5989539,30.7515298" id="Fill-14" fill="#E6E1F4"></path>
                </g>
            </g>
        </g>
    </g>
</svg>
