<?xml version="1.0" encoding="UTF-8" standalone="no"?>
<svg width="24" height="24" viewBox="0 0 1848 1795" version="1.1" xmlns="http://www.w3.org/2000/svg" xmlns:xlink="http://www.w3.org/1999/xlink" xml:space="preserve" style="fill-rule:evenodd;clip-rule:evenodd;stroke-linejoin:round;stroke-miterlimit:1.41421;">
    <g transform="matrix(1,0,0,1,55.0425,2.89245)">
        <path d="M1698,94C1760.67,156.667 1792,232.167 1792,320.5C1792,408.833 1760.67,484 1698,546L1473,769L1577,873C1583.67,879.667 1587,887.333 1587,896C1587,904.667 1583.67,912.333 1577,919L1367,1129C1360.33,1135.67 1352.67,1139 1344,1139C1335.33,1139 1327.67,1135.67 1321,1129L1216,1024L613,1627C588.333,1651.67 558.333,1664 523,1664L320,1664L64,1792L0,1728L128,1472L128,1269C128,1233.67 140.333,1203.67 165,1179L768,576L663,471C656.333,464.333 653,456.667 653,448C653,439.333 656.333,431.667 663,425L873,215C879.667,208.333 887.333,205 896,205C904.667,205 912.333,208.333 919,215L1023,319L1246,94C1308,31.333 1383.17,0 1471.5,0C1559.83,0 1635.33,31.333 1698,94ZM512,1472L1088,896L896,704L320,1280L320,1472L512,1472Z" style="fill-rule:nonzero;"/>
    </g>
    <path d="M1698,94C1760.67,156.667 1792,232.167 1792,320.5C1792,408.833 1760.67,484 1698,546L1473,769L1577,873C1583.67,879.667 1587,887.333 1587,896C1587,904.667 1583.67,912.333 1577,919L1367,1129C1360.33,1135.67 1352.67,1139 1344,1139C1335.33,1139 1327.67,1135.67 1321,1129L1216,1024L613,1627C588.333,1651.67 558.333,1664 523,1664L320,1664L64,1792L0,1728L128,1472L128,1269C128,1233.67 140.333,1203.67 165,1179L768,576L663,471C656.333,464.333 653,456.667 653,448C653,439.333 656.333,431.667 663,425L873,215C879.667,208.333 887.333,205 896,205C904.667,205 912.333,208.333 919,215L1023,319L1246,94C1308,31.333 1383.17,0 1471.5,0C1559.83,0 1635.33,31.333 1698,94ZM512,1472L1088,896L896,704L320,1280L320,1472L512,1472Z" style="fill:white;fill-rule:nonzero;"/>
    <path d="M1698,94C1760.67,156.667 1792,232.167 1792,320.5C1792,408.833 1760.67,484 1698,546L1473,769L1577,873C1583.67,879.667 1587,887.333 1587,896C1587,904.667 1583.67,912.333 1577,919L1367,1129C1360.33,1135.67 1352.67,1139 1344,1139C1335.33,1139 1327.67,1135.67 1321,1129L1216,1024L613,1627C588.333,1651.67 558.333,1664 523,1664L320,1664L64,1792L0,1728L128,1472L128,1269C128,1233.67 140.333,1203.67 165,1179L768,576L663,471C656.333,464.333 653,456.667 653,448C653,439.333 656.333,431.667 663,425L873,215C879.667,208.333 887.333,205 896,205C904.667,205 912.333,208.333 919,215L1023,319L1246,94C1308,31.333 1383.17,0 1471.5,0C1559.83,0 1635.33,31.333 1698,94ZM512,1472L1088,896L896,704L320,1280L320,1472L512,1472Z" style="fill:white;fill-rule:nonzero;"/>
</svg>
