<?xml version="1.0" encoding="utf-8"?>
<!-- Generator: Adobe Illustrator 15.1.0, SVG Export Plug-In . SVG Version: 6.00 Build 0)  -->
<!DOCTYPE svg PUBLIC "-//W3C//DTD SVG 1.0//EN" "http://www.w3.org/TR/2001/REC-SVG-20010904/DTD/svg10.dtd">
<svg xmlns:xlink="http://www.w3.org/1999/xlink" version="1.0" id="Layer_1" xmlns="http://www.w3.org/2000/svg" x="0px" y="0px"
	 width="396.85px" height="95.656px" viewBox="100.215 459.789 396.85 95.656"
	 enable-background="new 100.215 459.789 396.85 95.656" xml:space="preserve">
<g>
	<path fill="#FFFFFF" d="M221.221,477.657l-0.059-0.092c-1.842-2.877-4.447-5.203-7.753-6.918
		c-3.229-1.668-7.063-2.514-11.388-2.514h-52.775c-6.015,0-11.155,1.082-15.313,3.229c-8.414,4.424-13.724,14.558-16.234,31.002
		c-0.675,4.545-1.017,8.63-1.017,12.138c0,7.659,1.468,13.939,4.362,18.672l0.058,0.09c1.842,2.877,4.447,5.203,7.753,6.92
		c3.23,1.668,7.063,2.514,11.388,2.514h26.652l26.123-0.001c6.014,0,11.154-1.08,15.313-3.229
		c8.414-4.424,13.724-14.558,16.234-31.002c0.675-4.546,1.018-8.631,1.018-12.139C225.583,488.668,224.115,482.387,221.221,477.657z
		"/>
	<path fill="#512E83" d="M216.699,479.717c-1.34-2.095-3.246-3.783-5.721-5.066c-2.479-1.28-5.461-1.924-8.956-1.924H175.37
		c0,0-0.037,0-0.093,0.002v-0.002h-26.652c-3.495,0-6.687,0.645-9.581,1.924c-2.892,1.283-5.329,2.688-7.35,4.781
		c-0.783,0.834-1.323,1.629-2.038,2.592l-0.334,0.535c-1.34,2.535-2.46,5.287-3.363,8.258c-0.902,2.97-1.792,6.771-2.667,11.402
		c-0.872,4.629-1.309,9.103-1.309,13.412c0,7.107,1.486,12.643,4.455,16.604c1.34,1.689,3.015,2.939,5.023,3.755
		c2.013,0.817,4.252,1.224,6.73,1.224c2.475,0,5.023-0.35,7.644-1.046c2.155-0.526,4.252-1.838,6.293-3.933l3.231,4.455h9.872h0.35
		h27.437c5.184,0,9.468-0.875,12.846-2.62c6.755-3.552,11.242-12.583,13.457-27.089c0.64-4.309,0.96-8.096,0.96-11.359
		C220.282,488.922,219.087,483.621,216.699,479.717z M205.08,504.883c-1.049,6.523-2.535,11.391-4.458,14.594
		c-1.92,3.205-4.573,4.804-7.95,4.804h-11.185l3.259-20.687h-31.204c-0.049,0.01-0.099,0.021-0.147,0.029
		c-0.3,0.061-0.594,0.124-0.878,0.191c-0.124,0.029-0.245,0.06-0.366,0.09c-0.251,0.063-0.498,0.126-0.735,0.193
		c-0.175,0.049-0.343,0.104-0.511,0.155c-0.175,0.056-0.354,0.108-0.521,0.166c-0.337,0.117-0.661,0.237-0.967,0.366l-1.396,9.002
		h6.9l-1.041,5.863c-0.234,0.349-0.495,0.641-0.785,0.871c-0.303,0.257-0.606,0.494-0.914,0.721
		c-0.112,0.083-0.226,0.158-0.338,0.238c-0.191,0.134-0.385,0.264-0.578,0.387c-0.145,0.092-0.288,0.18-0.434,0.266
		c-0.156,0.092-0.313,0.178-0.47,0.262c-0.171,0.093-0.342,0.187-0.515,0.271c-0.059,0.028-0.116,0.052-0.175,0.078
		c-0.487,0.229-0.98,0.423-1.479,0.585c-0.027,0.008-0.053,0.02-0.08,0.027c-0.26,0.082-0.522,0.152-0.786,0.218
		c-0.042,0.01-0.086,0.021-0.129,0.03c-0.272,0.064-0.546,0.119-0.821,0.164l-2.196,0.513h-1.217c-3.378,0-5.51-1.601-6.39-4.804
		c-0.882-3.203-0.787-8.07,0.284-14.594c0.912-4.775,1.741-8.313,2.49-10.617c0.747-2.301,1.677-4.135,2.794-5.504
		c0.721-0.886,1.47-1.592,2.248-2.125l0,0h0.001c0.19-0.131,0.384-0.25,0.579-0.359c0.037-0.021,0.074-0.042,0.111-0.063
		c0.2-0.107,0.399-0.209,0.603-0.293c1.247-0.523,2.715-0.785,4.403-0.785h4.947h5.627h27.03h6.073h4.501
		c1.688,0,3.071,0.262,4.148,0.785c1.078,0.526,1.952,1.473,2.62,2.84c0.672,1.369,1.007,3.205,1.007,5.504
		C206.04,496.57,205.718,500.108,205.08,504.883z"/>
	<path fill="#40A5B0" d="M202.022,472.727c3.495,0,6.478,0.644,8.956,1.922c2.475,1.285,4.38,2.974,5.721,5.066
		c2.389,3.904,3.583,9.205,3.583,15.904c0,3.264-0.32,7.051-0.96,11.359c-2.215,14.506-6.702,23.537-13.457,27.088
		c-3.378,1.746-7.662,2.621-12.846,2.621h-27.786l10.136-63.963h26.653V472.727z M192.67,524.281c3.377,0,6.03-1.601,7.95-4.804
		c1.923-3.203,3.41-8.07,4.458-14.594c0.641-4.775,0.96-8.313,0.96-10.617c0-2.301-0.334-4.135-1.007-5.504
		c-0.668-1.369-1.542-2.313-2.62-2.84c-1.077-0.523-2.46-0.785-4.148-0.785h-10.574l-6.204,39.145L192.67,524.281L192.67,524.281z"
		/>
	<path fill="#FFFFFF" d="M205.033,488.762c-0.668-1.369-1.542-2.313-2.62-2.84c-1.077-0.523-2.46-0.785-4.148-0.785h-4.501h-6.073
		h-27.03h-5.627h-4.947c-1.688,0-3.156,0.262-4.403,0.785c-0.203,0.084-0.402,0.186-0.603,0.293
		c-0.038,0.021-0.075,0.041-0.112,0.063c-0.193,0.109-0.387,0.229-0.578,0.359h-0.001l0,0c-0.778,0.533-1.527,1.239-2.248,2.125
		c-1.117,1.369-2.048,3.205-2.794,5.504c-0.749,2.304-1.578,5.842-2.49,10.617c-1.071,6.523-1.166,11.391-0.284,14.594
		c0.879,3.205,3.012,4.804,6.39,4.804h1.216l2.197-0.513c2.365-0.381,4.605-1.455,6.718-3.246c0.292-0.23,0.552-0.522,0.786-0.87
		l1.041-5.864h-6.9l1.396-9.002c1.144-0.48,2.52-0.875,4.112-1.189h31.219l-3.259,20.686h11.185c3.377,0,6.03-1.6,7.95-4.803
		c1.923-3.205,3.41-8.071,4.458-14.596c0.641-4.774,0.96-8.313,0.96-10.617C206.04,491.965,205.705,490.131,205.033,488.762z"/>
	<path fill="#512E83" d="M199.822,493.076c-0.243,1.729-1.842,3.129-3.57,3.129c-1.728,0-2.933-1.401-2.688-3.129
		c0.243-1.729,1.841-3.13,3.568-3.13C198.861,489.946,200.065,491.346,199.822,493.076z"/>
	<polygon fill="#512E83" points="170.479,503.596 165.234,526.926 169.488,526.926 172.005,503.596 	"/>
	<polygon fill="#FFFFFF" points="172.419,500.735 172.005,503.596 169.012,524.281 183.104,524.281 186.777,500.823 	"/>
	<polygon fill="#40A5B0" points="186.065,547.1 176.212,530.356 186.065,513.613 170.464,513.874 158.527,530.354 170.245,547.051 	
		"/>
	<polygon fill="#512E83" points="188.989,502.379 183.842,502.379 184.566,497.233 189.71,497.233 	"/>
	<polygon fill="#FFFFFF" points="170.507,478.869 166.026,485.135 177.921,485.135 182.244,479.301 178.112,472.539 
		166.984,472.539 	"/>
</g>
<path fill="#FFFFFF" d="M272.162,489.111v-4.22h7.578v9.75c0,3.604-1.694,5.406-5.08,5.406h-5.161c-3.386,0-5.078-1.802-5.078-5.406
	v-16.508c0-3.604,1.692-5.406,5.078-5.406h5.161c3.386,0,5.08,1.802,5.08,5.406v2.5h-5.449v-3.195c0-0.219-0.074-0.41-0.225-0.573
	c-0.151-0.164-0.334-0.246-0.553-0.246h-2.58c-0.22,0-0.404,0.083-0.555,0.246c-0.149,0.163-0.225,0.354-0.225,0.573v17.859
	c0,0.219,0.075,0.409,0.225,0.573s0.335,0.246,0.555,0.246h2.58c0.219,0,0.4-0.082,0.553-0.246c0.149-0.164,0.225-0.354,0.225-0.573
	v-6.187H272.162L272.162,489.111z"/>
<path fill="#FFFFFF" d="M295.8,472.727c3.387,0,5.08,1.802,5.08,5.406v21.504h-5.735v-8.889h-4.137v8.889h-5.734v-21.504
	c0-3.604,1.692-5.406,5.079-5.406H295.8L295.8,472.727z M291.008,486.326h4.137v-8.89c0-0.217-0.074-0.409-0.226-0.572
	c-0.15-0.164-0.335-0.246-0.554-0.246h-2.579c-0.219,0-0.404,0.083-0.554,0.246c-0.15,0.164-0.226,0.355-0.226,0.572
	L291.008,486.326L291.008,486.326z"/>
<path fill="#FFFFFF" d="M312.712,499.639h-5.734v-21.504c0-3.604,1.691-5.408,5.078-5.408h3.031c1.992,0,3.414,0.656,4.26,1.967
	c0.792-1.311,2.213-1.967,4.262-1.967h3.029c3.387,0,5.08,1.803,5.08,5.408v21.504h-5.734v-21.996c0-0.219-0.076-0.41-0.227-0.573
	c-0.149-0.164-0.334-0.246-0.553-0.246h-2.213c-0.218,0-0.402,0.082-0.552,0.246c-0.151,0.163-0.228,0.354-0.228,0.573v21.996
	h-5.733v-21.996c0-0.219-0.075-0.41-0.226-0.573c-0.148-0.164-0.334-0.246-0.553-0.246h-2.211c-0.22,0-0.404,0.082-0.555,0.246
	c-0.148,0.163-0.225,0.354-0.225,0.573v21.996H312.712z"/>
<path fill="#FFFFFF" d="M343.417,494.887h6.349v4.75h-12.084v-26.5h12.084v4.668h-6.349v6.227h5.938v4.505h-5.938V494.887z"/>
<path fill="#FF8C1C" d="M274.948,509.219c3.386,0,5.078,1.803,5.078,5.407v15.688c0,3.604-1.692,5.406-5.078,5.406H264.42v-26.5
	h10.527V509.219z M274.291,530.971V513.93c0-0.217-0.074-0.41-0.225-0.572c-0.151-0.164-0.334-0.247-0.553-0.247h-3.358v18.679
	h3.358c0.219,0,0.4-0.083,0.553-0.246C274.216,531.379,274.291,531.188,274.291,530.971z"/>
<path fill="#FF8C1C" d="M291.86,509.219v26.502h-5.735v-26.502H291.86L291.86,509.219z"/>
<path fill="#FF8C1C" d="M312.639,516.182h-5.447v-2.088c0-0.219-0.075-0.41-0.226-0.574s-0.336-0.246-0.553-0.246h-2.254
	c-0.219,0-0.402,0.082-0.553,0.246s-0.227,0.355-0.227,0.574v4.711c0,0.219,0.074,0.41,0.227,0.574
	c0.148,0.163,0.334,0.245,0.553,0.245h3.687c3.387,0.056,5.081,1.856,5.081,5.407v5.693c0,3.604-1.694,5.408-5.081,5.408h-4.833
	c-3.387,0-5.078-1.804-5.078-5.408v-2.744h5.445v2.949c0,0.219,0.076,0.41,0.228,0.574c0.149,0.163,0.334,0.245,0.552,0.245h2.541
	c0.219,0,0.402-0.082,0.553-0.245c0.15-0.164,0.226-0.355,0.226-0.574v-5.201c0-0.219-0.074-0.41-0.226-0.573
	c-0.149-0.165-0.334-0.246-0.553-0.246h-3.688c-3.387,0-5.078-1.804-5.078-5.407v-5.283c0-3.604,1.691-5.408,5.078-5.408h4.547
	c3.386,0,5.079,1.803,5.079,5.408V516.182z"/>
<path fill="#FF8C1C" d="M317.853,514.094v-4.875h14.336v4.875h-4.301v21.627h-5.735v-21.627H317.853z"/>
<path fill="#FF8C1C" d="M343.179,524.867v10.854h-5.734v-26.502h10.199c3.387,0,5.079,1.803,5.079,5.407v3.072
	c0,2.185-0.778,3.578-2.334,4.178c1.364,0.491,2.048,1.612,2.048,3.359v10.485h-5.734v-10.035c0-0.545-0.261-0.819-0.777-0.819
	H343.179z M343.179,513.111v7.741h3.031c0.219,0,0.401-0.082,0.554-0.246c0.149-0.164,0.225-0.354,0.225-0.573v-6.103
	c0-0.219-0.075-0.41-0.225-0.574c-0.151-0.164-0.335-0.246-0.554-0.246L343.179,513.111L343.179,513.111z"/>
<path fill="#FF8C1C" d="M364.233,509.219v26.502H358.5v-26.502H364.233L364.233,509.219z"/>
<path fill="#FF8C1C" d="M383.3,521.221c1.775,0.629,2.662,2.076,2.662,4.342v4.752c0,3.604-1.692,5.406-5.078,5.406h-10.527v-26.5
	h10.2c3.385,0,5.077,1.801,5.077,5.406v2.417C385.634,519.227,384.856,520.621,383.3,521.221z M379.123,513.111h-3.031v7.086h3.031
	c0.217,0,0.4-0.082,0.553-0.246c0.148-0.164,0.225-0.354,0.225-0.573v-5.447c0-0.219-0.074-0.41-0.225-0.574
	C379.523,513.192,379.339,513.111,379.123,513.111z M380.227,530.971v-5.94c0-0.218-0.074-0.41-0.226-0.574
	c-0.15-0.164-0.334-0.245-0.553-0.245h-3.357v7.578h3.357c0.219,0,0.401-0.083,0.553-0.246
	C380.152,531.379,380.227,531.188,380.227,530.971z"/>
<path fill="#FF8C1C" d="M401.359,509.219h5.734v21.504c0,3.604-1.692,5.408-5.078,5.408h-5.08c-3.387,0-5.079-1.804-5.079-5.408
	v-21.504h5.735v21.996c0,0.219,0.074,0.409,0.225,0.574c0.148,0.164,0.335,0.245,0.555,0.245h2.211c0.219,0,0.402-0.081,0.553-0.245
	c0.15-0.165,0.226-0.355,0.226-0.574L401.359,509.219L401.359,509.219z"/>
<path fill="#FF8C1C" d="M412.271,514.094v-4.875h14.338v4.875h-4.303v21.627h-5.734v-21.627H412.271z"/>
<path fill="#FF8C1C" d="M437.599,509.219v26.502h-5.734v-26.502H437.599L437.599,509.219z"/>
<path fill="#FF8C1C" d="M459.306,514.217v16.506c0,3.604-1.691,5.408-5.078,5.408h-5.449c-3.387,0-5.078-1.804-5.078-5.408v-16.506
	c0-3.604,1.691-5.408,5.078-5.408h5.449C457.613,508.809,459.306,510.613,459.306,514.217z M453.57,531.379V513.52
	c0-0.217-0.074-0.409-0.225-0.573s-0.334-0.246-0.553-0.246h-2.58c-0.219,0-0.404,0.083-0.555,0.246
	c-0.148,0.164-0.225,0.354-0.225,0.573v17.859c0,0.219,0.074,0.41,0.225,0.574c0.15,0.163,0.336,0.245,0.555,0.245h2.58
	c0.219,0,0.4-0.082,0.553-0.245C453.496,531.79,453.57,531.598,453.57,531.379z"/>
<path fill="#FF8C1C" d="M480.597,535.721h-5.732v-21.996c0-0.219-0.076-0.41-0.227-0.573c-0.148-0.164-0.334-0.247-0.553-0.247
	h-2.211c-0.219,0-0.404,0.083-0.555,0.247c-0.15,0.163-0.225,0.354-0.225,0.573v21.996h-5.734v-21.504
	c0-3.604,1.691-5.408,5.078-5.408h5.08c3.387,0,5.078,1.803,5.078,5.408V535.721L480.597,535.721z"/>
</svg>
