<?xml version="1.0" encoding="utf-8"?>
<!-- Generator: Adobe Illustrator 14.0.0, SVG Export Plug-In . SVG Version: 6.00 Build 43363)  -->
<!DOCTYPE svg PUBLIC "-//W3C//DTD SVG 1.1//EN" "http://www.w3.org/Graphics/SVG/1.1/DTD/svg11.dtd">
<svg version="1.1" id="Layer_1" xmlns="http://www.w3.org/2000/svg" xmlns:xlink="http://www.w3.org/1999/xlink" x="0px" y="0px"
	 width="2140px" height="320px" viewBox="0 0 2140 320" enable-background="new 0 0 2140 320" xml:space="preserve">
<rect fill="#990000" width="2140" height="320"/>
<path fill="#FFFFFF" d="M169.937,257.669v-32.713h12.765l0.87-1.234l-31.908-51.228l-25.526,24.071v24.688l0.58,1.235l18.855,6.789
	v28.391H61.161v-32.713h17.114l0.872-1.234v-121.58l-0.581-1.235L60,93.194V64.802h85.282v32.712h-18.274l-0.87,1.231v61.409
	l61.494-59.56v-1.229l-9.573-3.087l-9.572-3.084V64.802h88.469v32.712h-11.601l-2.901,0.925l-58.011,50.917l51.922,71.897
	l1.739,1.545l20.017,6.479v28.391H169.937z"/>
<path fill="#FFFFFF" d="M361.965,262.604c-66.715,0-87.601-34.562-87.601-96.588c0-85.166,40.898-105.535,96.882-105.535
	c66.717,0,87.604,34.562,87.604,96.588C458.85,242.236,417.947,262.604,361.965,262.604z M366.316,93.81
	c-33.07,0-43.219,18.516-43.219,62.333c0,61.409,7.251,72.826,43.801,72.826c33.065,0,43.219-18.515,43.219-62.331
	C410.117,105.534,403.447,93.81,366.316,93.81z"/>
<path fill="#FFFFFF" d="M686.842,97.514h-17.117l-0.867,1.231v161.7h-56.275l-69.908-148.739h-4.349v108.626l0.579,1.231
	l24.075,7.715v28.391h-78.608v-32.713h17.115l0.87-1.234v-121.58l-0.58-1.235l-18.565-7.712V64.802h79.479l65.557,141.95h4.353
	v-104.61l-0.581-1.235l-24.077-7.712V64.802h78.9V97.514z"/>
<path fill="#FFFFFF" d="M889.021,190.086h-18.565l-0.87,1.236v23.144l17.693,5.866c0,0,0,23.449,0,25.61
	c-26.396,9.252-54.824,16.661-89.341,16.661c-67.008,0-89.051-33.635-89.051-96.588c0-84.24,39.738-105.535,95.144-105.535
	c18.273,0,26.107,2.781,35.389,5.865l31.617-8.95v72.519h-31.326l-8.416-29.009c-10.149-4.628-18.273-7.097-32.196-7.097
	c-29.586,0-41.481,20.059-41.481,62.333c0,60.482,8.412,72.518,45.254,72.518c9.57,0,17.691-1.544,24.075-4.012v-31.473
	l-0.579-1.235l-24.657-6.175v-28.387h87.311V190.086z"/>
<path fill="#FFFFFF" d="M1038.698,257.669l-15.956-33.325l-21.465-43.203l-19.724,3.08v37.033l0.58,1.235l15.375,6.171v29.009
	h-80.93v-32.713h17.11l0.874-1.234v-121.58l-0.58-1.235l-18.565-7.712V64.802h86.731c60.624,0,80.347,12.342,80.347,54.62
	c0,31.166-14.792,48.448-38.577,57.397l30.167,44.435l1.74,1.545l17.404,6.479v28.391H1038.698z M995.186,97.514h-13.633v57.395
	l17.405,2.469c21.463-4.939,32.196-11.729,32.196-32.4C1031.154,103.684,1024.484,97.514,995.186,97.514z"/>
<path fill="#FFFFFF" d="M1278.582,257.669h-169.683v-32.713h17.111l0.87-1.234v-121.58l-0.585-1.235l-18.561-7.712V64.802h173.171
	v71.901h-33.646l-3.772-21.909c-3.195-15.74-6.675-17.281-61.205-17.281h-8.413v50.916h12.185c9.86,0,11.893-1.233,14.21-9.259
	l3.194-13.269h26.681l-6.958,69.742h-22.331l-3.195-13.89c-2.317-6.787-4.349-8.023-11.601-8.023h-12.185v51.226h8.413
	c52.791,0,55.116-1.234,60.336-18.822l6.088-20.06h35.396L1278.582,257.669z"/>
<path fill="#FFFFFF" d="M1488.018,190.086h-18.568l-0.87,1.236v23.144l17.698,5.866c0,0,0,23.449,0,25.61
	c-26.404,9.252-54.824,16.661-89.341,16.661c-67.011,0-89.057-33.635-89.057-96.588c0-84.24,39.735-105.535,95.145-105.535
	c18.275,0,26.104,2.781,35.386,5.865l31.625-8.95v72.519h-31.33l-8.414-29.009c-10.154-4.628-18.276-7.097-32.2-7.097
	c-29.591,0-41.477,20.059-41.477,62.333c0,60.482,8.406,72.518,45.248,72.518c9.576,0,17.698-1.544,24.079-4.012v-31.473
	l-0.578-1.235l-24.655-6.175v-28.387h87.31V190.086z"/>
<path fill="#FFFFFF" d="M1609.842,257.669v-32.713h14.219l0.862-1.234l-4.634-25.611h-58.02l-4.643,23.144l0.578,1.235l17.698,6.789
	v28.391h-73.97v-32.713h17.113l1.455-1.234l42.638-141.33V70.358l64.107-10.184l48.149,161.08l0.87,1.545l19.73,6.479v28.391
	H1609.842z M1593.6,97.205h-4.349l-17.697,71.899h38.866L1593.6,97.205z"/>
<path fill="#FFFFFF" d="M1847.08,140.713l-5.229-29.314c-2.023-10.184-3.187-14.505-20.59-14.505h-9.861v124.36l0.576,1.235
	l26.104,6.789v28.391h-98.908v-32.713h24.363l0.87-1.234V96.894h-8.415c-15.372,0-17.111,4.012-19.145,12.036l-9.282,31.783h-35.388
	l5.512-75.911h183.038v75.911H1847.08z"/>
<path fill="#FFFFFF" d="M2074.496,257.669h-169.698v-32.713h17.12l0.87-1.234v-121.58l-0.578-1.235l-18.566-7.712V64.802h173.17
	v71.901h-33.647l-3.771-21.909c-3.187-15.74-6.675-17.281-61.206-17.281h-8.413v50.916h12.186c9.86,0,11.893-1.233,14.21-9.259
	l3.194-13.269h26.688l-6.966,69.742h-22.332l-3.195-13.89c-2.316-6.787-4.348-8.023-11.6-8.023h-12.186v51.226h8.413
	c52.792,0,55.116-1.234,60.335-18.822l6.09-20.06H2080L2074.496,257.669z"/>
</svg>
