<?xml version="1.0" encoding="UTF-8" standalone="no"?>
<!DOCTYPE svg PUBLIC "-//W3C//DTD SVG 1.1//EN" "http://www.w3.org/Graphics/SVG/1.1/DTD/svg11.dtd">
<svg width="100%" height="100%" viewBox="0 0 1707 231" version="1.1" xmlns="http://www.w3.org/2000/svg" xmlns:xlink="http://www.w3.org/1999/xlink" xml:space="preserve" xmlns:serif="http://www.serif.com/" style="fill-rule:evenodd;clip-rule:evenodd;stroke-linejoin:round;stroke-miterlimit:1.41421;">
    <g transform="matrix(1,0,0,1,-563.747,-960.464)">
        <g transform="matrix(0.576253,0,0,0.668782,242.861,347.886)">
            <g transform="matrix(1.73535,0,0,1.49526,-446.314,-465.843)">
                <path d="M632.826,1001.85L660.637,1023.25C678.037,1005.86 705.343,997.31 724.543,997.31C744.743,997.31 757.543,1005.01 762.943,1020.41C779.143,1005.01 796.443,997.31 814.843,997.31C843.043,997.31 857.143,1011.21 857.143,1039.01L857.143,1150.61L802.843,1150.61L802.843,1056.11C802.843,1051.51 801.943,1048.26 800.143,1046.36C798.343,1044.46 795.143,1043.51 790.543,1043.51C784.143,1043.51 775.943,1046.11 765.943,1051.31L765.943,1150.61L713.443,1150.61L713.443,1056.11C713.443,1051.51 712.443,1048.26 710.443,1046.36C708.443,1044.46 705.243,1043.51 700.843,1043.51C694.243,1043.51 686.143,1045.91 676.543,1050.71L676.543,1150.61L622.243,1150.61C622.039,1076.88 631.114,1064.65 578.075,1032.27L632.826,1001.85Z" style="fill:white;fill-rule:nonzero;"/>
            </g>
            <g transform="matrix(1.73535,0,0,1.49526,-446.314,-465.843)">
                <path d="M903.343,934.31L927.043,934.31C937.443,934.31 942.643,939.71 942.643,950.51L942.643,966.11C942.643,976.71 937.443,982.01 927.043,982.01L903.343,982.01C892.743,982.01 887.443,976.71 887.443,966.11L887.443,950.51C887.443,939.71 892.743,934.31 903.343,934.31ZM942.343,1150.61L888.043,1150.61L888.043,1001.51L942.343,1001.51L942.343,1150.61Z" style="fill:white;fill-rule:nonzero;"/>
            </g>
            <g transform="matrix(1.73535,0,0,1.49526,-446.314,-465.843)">
                <path d="M1102.54,1108.31L1107.64,1142.81C1092.24,1150.41 1071.64,1154.21 1045.84,1154.21C1017.44,1154.21 997.443,1148.36 985.843,1136.66C974.243,1124.96 968.443,1104.71 968.443,1075.91C968.443,1047.11 974.293,1026.81 985.993,1015.01C997.693,1003.21 1017.84,997.31 1046.44,997.31C1070.64,997.31 1090.24,1000.71 1105.24,1007.51L1099.84,1041.41L1055.74,1041.11C1044.14,1041.11 1036.24,1043.51 1032.04,1048.31C1027.84,1053.11 1025.74,1062.31 1025.74,1075.91C1025.74,1089.51 1027.84,1098.71 1032.04,1103.51C1036.24,1108.31 1044.14,1110.71 1055.74,1110.71C1073.14,1110.71 1088.74,1109.91 1102.54,1108.31Z" style="fill:white;fill-rule:nonzero;"/>
            </g>
            <g transform="matrix(1.73535,0,0,1.49526,-446.314,-465.843)">
                <path d="M1244.44,997.31L1239.64,1047.41L1225.24,1047.41C1215.24,1047.41 1201.54,1049.51 1184.14,1053.71L1184.14,1150.61L1129.54,1150.61L1129.54,1001.51L1172.14,1001.51L1176.94,1023.41C1196.34,1006.01 1216.14,997.31 1236.34,997.31L1244.44,997.31Z" style="fill:white;fill-rule:nonzero;"/>
            </g>
            <g transform="matrix(1.73535,0,0,1.49526,-446.314,-465.843)">
                <path d="M1334.74,997.31C1364.14,997.31 1384.89,1003.26 1396.99,1015.16C1409.09,1027.06 1415.14,1047.41 1415.14,1076.21C1415.14,1104.81 1409.09,1124.96 1396.99,1136.66C1384.89,1148.36 1364.14,1154.21 1334.74,1154.21C1305.34,1154.21 1284.59,1148.36 1272.49,1136.66C1260.39,1124.96 1254.34,1104.81 1254.34,1076.21C1254.34,1047.41 1260.44,1027.06 1272.64,1015.16C1284.84,1003.26 1305.54,997.31 1334.74,997.31ZM1334.74,1035.71C1325.34,1035.71 1319.14,1038.36 1316.14,1043.66C1313.14,1048.96 1311.64,1059.81 1311.64,1076.21C1311.64,1092.41 1313.14,1103.11 1316.14,1108.31C1319.14,1113.51 1325.34,1116.11 1334.74,1116.11C1343.94,1116.11 1350.09,1113.51 1353.19,1108.31C1356.29,1103.11 1357.84,1092.41 1357.84,1076.21C1357.84,1059.81 1356.29,1048.96 1353.19,1043.66C1350.09,1038.36 1343.94,1035.71 1334.74,1035.71Z" style="fill:white;fill-rule:nonzero;"/>
            </g>
        </g>
        <g transform="matrix(1,0,0,1,877.765,-671.439)">
            <path d="M695.824,1804.61C695.824,1822.48 689.256,1836.64 676.121,1847.09C662.987,1857.54 645.531,1862.76 623.753,1862.76C597.581,1862.76 577.513,1859.88 563.548,1854.12L563.548,1839.18C578.978,1845.72 598.656,1848.99 622.581,1848.99C640.159,1848.99 654.1,1844.97 664.403,1836.91C674.705,1828.85 679.857,1818.28 679.857,1805.19C679.857,1797.09 678.148,1790.38 674.73,1785.05C671.312,1779.73 665.745,1774.87 658.031,1770.48C650.316,1766.08 638.988,1761.35 624.046,1756.27C602.171,1748.75 587.059,1740.62 578.709,1731.88C570.36,1723.14 566.185,1711.49 566.185,1696.94C566.185,1680.93 572.459,1667.87 585.008,1657.76C597.557,1647.65 613.695,1642.6 633.421,1642.6C653.538,1642.6 672.435,1646.41 690.111,1654.02L684.691,1666.91C666.917,1659.49 649.925,1655.78 633.714,1655.78C617.894,1655.78 605.296,1659.44 595.921,1666.77C586.546,1674.09 581.859,1684.05 581.859,1696.65C581.859,1704.56 583.299,1711.05 586.18,1716.13C589.061,1721.21 593.773,1725.78 600.316,1729.83C606.859,1733.88 618.089,1738.74 634.007,1744.4C650.706,1750.16 663.255,1755.76 671.654,1761.18C680.052,1766.6 686.18,1772.75 690.037,1779.63C693.895,1786.52 695.824,1794.84 695.824,1804.61Z" style="fill:rgb(255,141,61);fill-rule:nonzero;"/>
            <path d="M779.466,1849.87C788.646,1849.87 796.654,1849.09 803.49,1847.53L803.49,1859.25C796.458,1861.59 788.353,1862.76 779.173,1862.76C765.111,1862.76 754.735,1859 748.045,1851.48C741.356,1843.96 738.011,1832.15 738.011,1816.03L738.011,1713.2L714.427,1713.2L714.427,1704.71L738.011,1698.12L745.335,1662.08L752.806,1662.08L752.806,1700.61L799.534,1700.61L799.534,1713.2L752.806,1713.2L752.806,1813.98C752.806,1826.19 754.954,1835.22 759.251,1841.08C763.548,1846.94 770.286,1849.87 779.466,1849.87Z" style="fill:rgb(255,141,61);fill-rule:nonzero;"/>
            <path d="M850.511,1700.61L850.511,1803.73C850.511,1819.75 853.88,1831.39 860.618,1838.67C867.357,1845.94 877.806,1849.58 891.966,1849.58C910.911,1849.58 924.852,1844.79 933.787,1835.22C942.723,1825.65 947.191,1810.08 947.191,1788.5L947.191,1700.61L961.546,1700.61L961.546,1859.83L949.241,1859.83L946.605,1837.86L945.726,1837.86C935.374,1854.46 916.966,1862.76 890.501,1862.76C854.271,1862.76 836.156,1843.38 836.156,1804.61L836.156,1700.61L850.511,1700.61Z" style="fill:rgb(255,141,61);fill-rule:nonzero;"/>
            <path d="M1073.17,1697.53C1084.69,1697.53 1094.65,1699.63 1103.05,1703.83C1111.45,1708.03 1118.97,1715.2 1125.61,1725.36L1126.49,1725.36C1125.9,1713.06 1125.61,1701 1125.61,1689.18L1125.61,1631.9L1139.96,1631.9L1139.96,1859.83L1130.44,1859.83L1126.78,1835.52L1125.61,1835.52C1113.5,1853.68 1096.12,1862.76 1073.46,1862.76C1051.49,1862.76 1034.69,1855.93 1023.07,1842.26C1011.45,1828.58 1005.64,1808.66 1005.64,1782.49C1005.64,1754.95 1011.4,1733.91 1022.92,1719.36C1034.45,1704.8 1051.19,1697.53 1073.17,1697.53ZM1073.17,1710.71C1055.78,1710.71 1042.72,1716.82 1033.98,1729.02C1025.24,1741.23 1020.87,1758.95 1020.87,1782.2C1020.87,1827.31 1038.4,1849.87 1073.46,1849.87C1091.43,1849.87 1104.61,1844.65 1113.01,1834.2C1121.41,1823.75 1125.61,1806.51 1125.61,1782.49L1125.61,1780C1125.61,1755.39 1121.48,1737.69 1113.23,1726.9C1104.98,1716.11 1091.62,1710.71 1073.17,1710.71Z" style="fill:rgb(255,141,61);fill-rule:nonzero;"/>
            <path d="M1207.93,1859.83L1193.43,1859.83L1193.43,1700.61L1207.93,1700.61L1207.93,1859.83ZM1191.38,1656.37C1191.38,1646.99 1194.46,1642.3 1200.61,1642.3C1203.64,1642.3 1206,1643.53 1207.71,1645.97C1209.42,1648.41 1210.28,1651.87 1210.28,1656.37C1210.28,1660.76 1209.42,1664.23 1207.71,1666.77C1206,1669.31 1203.64,1670.58 1200.61,1670.58C1194.46,1670.58 1191.38,1665.84 1191.38,1656.37Z" style="fill:rgb(255,141,61);fill-rule:nonzero;"/>
            <path d="M1392.94,1780C1392.94,1805.98 1386.64,1826.26 1374.05,1840.86C1361.45,1855.46 1344.07,1862.76 1321.9,1862.76C1307.93,1862.76 1295.63,1859.39 1284.98,1852.66C1274.34,1845.92 1266.18,1836.25 1260.52,1823.65C1254.86,1811.05 1252.03,1796.5 1252.03,1780C1252.03,1754.02 1258.32,1733.78 1270.92,1719.28C1283.52,1704.78 1300.8,1697.53 1322.78,1697.53C1344.65,1697.53 1361.82,1704.88 1374.27,1719.57C1386.72,1734.27 1392.94,1754.41 1392.94,1780ZM1267.26,1780C1267.26,1801.87 1272.07,1818.94 1281.69,1831.2C1291.31,1843.45 1304.91,1849.58 1322.48,1849.58C1340.06,1849.58 1353.66,1843.45 1363.28,1831.2C1372.9,1818.94 1377.71,1801.87 1377.71,1780C1377.71,1758.03 1372.85,1740.99 1363.13,1728.88C1353.42,1716.77 1339.77,1710.71 1322.19,1710.71C1304.61,1710.71 1291.06,1716.74 1281.54,1728.8C1272.02,1740.86 1267.26,1757.93 1267.26,1780Z" style="fill:rgb(255,141,61);fill-rule:nonzero;"/>
        </g>
    </g>
</svg>
