<svg xmlns="http://www.w3.org/2000/svg" viewBox="0 0 1259.66 157.62"><defs><style>.cls-1{fill:#fff;}.cls-2{fill:#ff9076;}</style></defs><title>microStudio2</title><g id="Calque_2" data-name="Calque 2"><g id="Calque_1-2" data-name="Calque 1"><path class="cls-1" d="M165,88.89l-.4,66.6H131V96.69c0-12.6-5.4-17.2-13.6-17.2-10.2,0-17.6,7.6-17.6,22.6v53.4h-34V96.69c0-12.6-5.6-17.2-13.6-17.2-9.4,0-17.6,6.8-17.6,23.2v52.8H0l.6-64.4V55.49H31l1,19.2c6.4-14,18.4-21.2,33.6-21.2,14.8,0,26.8,6.8,31.6,20.2,6.6-13.2,19-20.2,33.6-20.2C150.4,53.49,165.2,65.49,165,88.89Z"/><path class="cls-1" d="M201,27.69c0-11.4,6-16.4,19.8-16.4s19.8,5,19.8,16.4c0,11.2-6,16.2-19.8,16.2S201,38.89,201,27.69Zm36.8,127.8h-34v-100h34Z"/><path class="cls-1" d="M373,84.49l-31.6,10.4c-1.4-11.6-6.4-17.2-15.4-17.2-12.8,0-19.8,8.6-19.8,28.2,0,19.8,7.8,27.4,19.8,27.4,9.6,0,15-5.8,16.6-16.2l30.6,9.8c-2.8,17.4-19,30.6-47,30.6-35,0-54-19.2-54-52s19.4-52,52.6-52C357.19,53.49,369.79,68.29,373,84.49Z"/><path class="cls-1" d="M478.79,55.69l-3.6,28.8c-2.6-1.6-7.4-3-12.6-3-12,0-22.4,7.8-22.4,23.6v50.4h-34v-100h30l1.4,21.6c4.8-14.8,14.8-23.6,30.4-23.6C473,53.49,476.59,54.49,478.79,55.69Z"/><path class="cls-1" d="M606.79,105.49c0,32.8-19.4,52-52.8,52s-52.8-19.2-52.8-52,19.4-52,52.8-52S606.79,72.69,606.79,105.49Zm-71.6,0c0,19.6,6.2,27.8,18.8,27.8s18.8-8.2,18.8-27.8-6.2-27.8-18.8-27.8S535.19,85.89,535.19,105.49Z"/><path class="cls-2" d="M747.83,43.88l-9.16,7.46C731.43,31.1,718,22.58,695,22.58c-25.35,0-40.26,12.78-40.26,29.18,0,15.55,10.44,23.43,44.52,29.18,37.06,6.39,50.48,17.47,50.48,38.34,0,22.79-21.3,38.34-52.82,38.34-29.61,0-50.69-12.35-58.15-33.65l9.37-7.24c5.75,20.23,23.86,31.1,49,31.1,23.86,0,41.54-10,41.54-27.9,0-14.7-10.65-23-42.39-28.54-39.4-6.6-52.82-17.47-52.82-38.55,0-21.51,19.38-40,51.33-40C721,12.78,738.89,23,747.83,43.88Z"/><path class="cls-2" d="M838.78,148.67c-5.54,5.32-13.84,8.95-24.07,8.95-16.61,0-27.69-8.95-27.69-28.75V58.15h-21.3V49H787V22.36l10.65-3V49h40v9.16h-40v69.22c0,13.42,6.6,20.45,18.74,20.45,7.67,0,13.42-2.77,18.53-7.88Z"/><path class="cls-2" d="M948.69,49v106.5H939.1l-.43-21.09c-7,15.12-21.94,23.22-41.11,23.22-22.37,0-38.34-12.14-38.34-38.34V49h10.65v67.73c0,22.15,11.08,31.52,29.39,31.52,24.07,0,38.77-17.47,38.77-38.13V49Z"/><path class="cls-2" d="M1078.4,0V155.49h-9.58l-.64-23.86c-6,16-20.45,26-39.62,26-30,0-48.78-20.66-48.78-55.38s18.74-55.38,48.78-55.38c18.53,0,32.8,9.37,39.19,24.71V0Zm-10.65,106.71V97.77c-1.28-25.56-15.76-41.53-37.91-41.53-24.71,0-39.4,17.47-39.4,46s14.7,46,39.4,46C1051.78,148.25,1066.48,132.48,1067.75,106.71Z"/><path class="cls-2" d="M1112.7,19.38a8.95,8.95,0,0,1,17.89,0,8.95,8.95,0,0,1-17.89,0ZM1127,155.49h-10.65V49H1127Z"/><path class="cls-2" d="M1259.66,102.24c0,34.51-19.17,55.38-50.69,55.38s-50.69-20.87-50.69-55.38,19.17-55.38,50.69-55.38S1259.66,67.73,1259.66,102.24Zm-90.74,0c0,28.75,15.12,46.22,40,46.22s40-17.47,40-46.22S1233.89,56,1209,56,1168.93,73.48,1168.93,102.24Z"/></g></g></svg>